<?xml version="1.0" encoding="utf-8"?>
<!-- Generator: Adobe Illustrator 23.0.1, SVG Export Plug-In . SVG Version: 6.00 Build 0)  -->
<svg version="1.1" id="Layer_1" xmlns="http://www.w3.org/2000/svg" xmlns:xlink="http://www.w3.org/1999/xlink" x="0px" y="0px"
	 viewBox="0 0 307.6 32.33" style="enable-background:new 0 0 307.6 32.33;" xml:space="preserve">
<style type="text/css">
	.st0{fill:none;stroke:#fff;stroke-width:1.5;stroke-miterlimit:10;}
	.st1{fill:#fff;stroke:#fff;stroke-miterlimit:10;}
</style>
<g>
	<g>
		<path class="st0" d="M24.94,31.03l-2.31-5.84H11.12l-2.18,5.84H1.13L13.6,1.3h6.97l12.35,29.74H24.94z M16.96,9.24l-3.78,10.21
			h7.48L16.96,9.24z"/>
		<path class="st0" d="M55.22,31.03L44.18,17.34h-0.08v13.69h-7.01V1.3h7.01v12.1h0.13L54.85,1.3h8.99L51.02,14.99l13.57,16.04
			H55.22z"/>
		<path class="st1" d="M77.78,31.03V1.3H85v23.48h11.51v6.26H77.78z"/>
		<path class="st1" d="M103.23,31.03V1.3h19.99v6.05h-13.06v5.63h12.35v5.75h-12.35v6.17h13.82v6.13H103.23z"/>
		<path class="st1" d="M153.38,30.51c-1.93,0.88-4.16,1.32-6.68,1.32c-2.3,0-4.42-0.38-6.36-1.13c-1.95-0.76-3.63-1.83-5.06-3.21
			s-2.55-3.04-3.36-4.98c-0.81-1.93-1.22-4.06-1.22-6.38c0-2.38,0.41-4.54,1.24-6.47c0.83-1.93,1.97-3.58,3.42-4.93
			s3.16-2.4,5.12-3.13s4.07-1.09,6.34-1.09c2.1,0,4.17,0.37,6.2,1.11c2.03,0.74,3.67,1.83,4.94,3.25l-4.87,4.87
			c-0.67-0.92-1.55-1.61-2.65-2.06s-2.21-0.67-3.36-0.67c-1.26,0-2.42,0.23-3.46,0.69s-1.95,1.1-2.71,1.91
			c-0.76,0.81-1.34,1.77-1.76,2.88c-0.42,1.11-0.63,2.32-0.63,3.63c0,1.34,0.21,2.58,0.63,3.7c0.42,1.12,1,2.08,1.74,2.88
			c0.74,0.8,1.63,1.42,2.67,1.87c1.04,0.45,2.17,0.67,3.4,0.67c1.43,0,2.67-0.28,3.74-0.84c1.06-0.56,1.92-1.29,2.56-2.18l5,4.7
			C156.93,28.43,155.31,29.63,153.38,30.51z"/>
		<path class="st1" d="M177.15,7.43v23.6h-7.18V7.43h-8.4V1.3h23.98v6.13H177.15z"/>
		<path class="st1" d="M216.48,24.71c-0.6,1.47-1.46,2.73-2.58,3.78c-1.12,1.05-2.47,1.87-4.05,2.46s-3.34,0.88-5.27,0.88
			c-1.96,0-3.72-0.29-5.29-0.88c-1.57-0.59-2.9-1.41-3.99-2.46s-1.93-2.31-2.52-3.78c-0.59-1.47-0.88-3.1-0.88-4.89V1.3h7.14v17.93
			c0,0.81,0.1,1.58,0.31,2.31c0.21,0.73,0.53,1.38,0.97,1.95c0.43,0.57,1.01,1.03,1.72,1.37s1.58,0.5,2.58,0.5
			c1.01,0,1.87-0.17,2.58-0.5s1.29-0.79,1.74-1.37c0.45-0.57,0.77-1.22,0.97-1.95c0.2-0.73,0.29-1.5,0.29-2.31V1.3h7.18v18.52
			C217.38,21.61,217.08,23.24,216.48,24.71z"/>
		<path class="st1" d="M242.46,31.03L236,19.23h-2.45v11.8h-7.01V1.3h11.34c1.43,0,2.82,0.15,4.18,0.44
			c1.36,0.29,2.58,0.79,3.65,1.49c1.08,0.7,1.94,1.62,2.58,2.77c0.64,1.15,0.97,2.58,0.97,4.28c0,2.02-0.55,3.71-1.64,5.08
			c-1.09,1.37-2.6,2.35-4.54,2.94l7.77,12.73H242.46z M242.17,10.41c0-0.7-0.15-1.27-0.44-1.7c-0.29-0.43-0.67-0.77-1.14-1.01
			c-0.46-0.24-0.99-0.4-1.56-0.48c-0.58-0.08-1.13-0.13-1.67-0.13h-3.84v6.93h3.42c0.59,0,1.2-0.05,1.82-0.15
			c0.62-0.1,1.18-0.27,1.69-0.52c0.51-0.25,0.92-0.62,1.25-1.09C242,11.78,242.17,11.17,242.17,10.41z"/>
		<path class="st1" d="M257.75,31.03V1.3h19.99v6.05h-13.06v5.63h12.35v5.75h-12.35v6.17h13.82v6.13H257.75z"/>
		<path class="st1" d="M302.31,9.03c-0.62-0.78-1.42-1.41-2.42-1.87c-0.99-0.46-1.95-0.69-2.88-0.69c-0.48,0-0.96,0.04-1.45,0.13
			c-0.49,0.08-0.93,0.25-1.32,0.48c-0.39,0.24-0.72,0.55-0.99,0.92c-0.27,0.38-0.4,0.86-0.4,1.45c0,0.5,0.1,0.92,0.31,1.26
			s0.52,0.63,0.92,0.88c0.41,0.25,0.89,0.48,1.45,0.69s1.19,0.43,1.89,0.65c1.01,0.34,2.06,0.71,3.15,1.11
			c1.09,0.41,2.09,0.94,2.98,1.62c0.9,0.67,1.64,1.51,2.23,2.5c0.59,0.99,0.88,2.23,0.88,3.72c0,1.71-0.31,3.18-0.94,4.43
			s-1.48,2.28-2.54,3.09c-1.06,0.81-2.28,1.41-3.65,1.81s-2.79,0.59-4.24,0.59c-2.13,0-4.19-0.37-6.17-1.11
			c-1.99-0.74-3.64-1.8-4.96-3.17l4.7-4.79c0.73,0.9,1.69,1.64,2.88,2.25c1.19,0.6,2.37,0.9,3.55,0.9c0.53,0,1.05-0.06,1.55-0.17
			c0.5-0.11,0.94-0.29,1.32-0.55s0.68-0.59,0.9-1.01c0.22-0.42,0.34-0.92,0.34-1.51c0-0.56-0.14-1.04-0.42-1.43
			c-0.28-0.39-0.68-0.75-1.2-1.07c-0.52-0.32-1.16-0.62-1.93-0.88c-0.77-0.27-1.65-0.55-2.62-0.86c-0.95-0.31-1.88-0.67-2.79-1.09
			c-0.91-0.42-1.72-0.96-2.44-1.62s-1.29-1.46-1.72-2.39c-0.43-0.94-0.65-2.08-0.65-3.42c0-1.65,0.34-3.07,1.01-4.24
			c0.67-1.18,1.55-2.14,2.65-2.9s2.32-1.31,3.7-1.66c1.37-0.35,2.76-0.53,4.16-0.53c1.68,0,3.39,0.31,5.14,0.92s3.28,1.53,4.6,2.73
			L302.31,9.03z"/>
	</g>
</g>
</svg>
